<?xml version="1.0" encoding="utf-8"?>
<!-- Generator: Adobe Illustrator 18.1.1, SVG Export Plug-In . SVG Version: 6.00 Build 0)  -->
<svg version="1.1" id="Layer_1" xmlns="http://www.w3.org/2000/svg" xmlns:xlink="http://www.w3.org/1999/xlink" x="0px" y="0px"
	 width="50px" height="50px" viewBox="0 0 50 50" enable-background="new 0 0 50 50" xml:space="preserve">
<g>
	<path d="M42.3,46.1H7.7c-2.5,0-4.5-2-4.5-4.5V8.4c0-2.5,2-4.5,4.5-4.5h34.6c2.5,0,4.5,2,4.5,4.5v33.2
		C46.8,44.1,44.8,46.1,42.3,46.1z M36.9,41.6c0,0.8,0.7,1.5,1.5,1.5h3.9c0.8,0,1.5-0.7,1.5-1.5v-3.8c0-0.8-0.7-1.5-1.5-1.5h-3.9
		c-0.8,0-1.5,0.7-1.5,1.5V41.6z M16.1,41.6c0,0.8,0.7,1.5,1.5,1.5h14.8c0.8,0,1.5-0.7,1.5-1.5V28c0-0.8-0.7-1.5-1.5-1.5H17.6
		c-0.8,0-1.5,0.7-1.5,1.5V41.6z M6.2,41.6c0,0.8,0.7,1.5,1.5,1.5h3.9c0.8,0,1.5-0.7,1.5-1.5v-3.8c0-0.8-0.7-1.5-1.5-1.5H7.7
		c-0.8,0-1.5,0.7-1.5,1.5V41.6z M38.4,33.3h3.9c0.8,0,1.5-0.7,1.5-1.5V28c0-0.8-0.7-1.5-1.5-1.5h-3.9c-0.8,0-1.5,0.7-1.5,1.5v3.8
		C36.9,32.6,37.6,33.3,38.4,33.3z M7.7,33.3h3.9c0.8,0,1.5-0.7,1.5-1.5V28c0-0.8-0.7-1.5-1.5-1.5H7.7c-0.8,0-1.5,0.7-1.5,1.5v3.8
		C6.2,32.6,6.9,33.3,7.7,33.3z M38.4,23.5h3.9c0.8,0,1.5-0.7,1.5-1.5v-3.8c0-0.8-0.7-1.5-1.5-1.5h-3.9c-0.8,0-1.5,0.7-1.5,1.5V22
		C36.9,22.8,37.6,23.5,38.4,23.5z M17.6,23.5h14.8c0.8,0,1.5-0.7,1.5-1.5V8.4c0-0.8-0.7-1.5-1.5-1.5H17.6c-0.8,0-1.5,0.7-1.5,1.5V22
		C16.1,22.8,16.8,23.5,17.6,23.5z M7.7,23.5h3.9c0.8,0,1.5-0.7,1.5-1.5v-3.8c0-0.8-0.7-1.5-1.5-1.5H7.7c-0.8,0-1.5,0.7-1.5,1.5V22
		C6.2,22.8,6.9,23.5,7.7,23.5z M38.4,13.7h3.9c0.8,0,1.5-0.7,1.5-1.5V8.4c0-0.8-0.7-1.5-1.5-1.5h-3.9c-0.8,0-1.5,0.7-1.5,1.5v3.8
		C36.9,13,37.6,13.7,38.4,13.7z M7.7,13.7h3.9c0.8,0,1.5-0.7,1.5-1.5V8.4c0-0.8-0.7-1.5-1.5-1.5H7.7c-0.8,0-1.5,0.7-1.5,1.5v3.8
		C6.2,13,6.9,13.7,7.7,13.7z"/>
</g>
</svg>
