<?xml version="1.0" encoding="utf-8"?>
<!-- Generator: Adobe Illustrator 18.1.1, SVG Export Plug-In . SVG Version: 6.00 Build 0)  -->
<svg version="1.1" id="Layer_1" xmlns="http://www.w3.org/2000/svg" xmlns:xlink="http://www.w3.org/1999/xlink" x="0px" y="0px"
	 width="50px" height="50px" viewBox="0 0 50 50" enable-background="new 0 0 50 50" xml:space="preserve">
<g>
	<path d="M36.2,19.9H13.8c-0.8,0-1.5-0.7-1.5-1.5V4.9c0-0.8,0.7-1.5,1.5-1.5h22.5c0.8,0,1.5,0.7,1.5,1.5v13.5
		C37.8,19.3,37.1,19.9,36.2,19.9z M15.2,16.9h19.5V6.4H15.2V16.9z"/>
</g>
<g>
	<path d="M40.7,40h-4.2c-0.8,0-1.5-0.7-1.5-1.5V33H15v5.5c0,0.8-0.7,1.5-1.5,1.5H9.3C6.9,40,5,37.8,5,35.2V21.4
		C5,18.9,6.9,17,9.3,17h31.3c2.5,0,4.3,1.9,4.3,4.4v13.7C45,37.8,43.1,40,40.7,40z M38,37h2.7c0.8,0,1.3-1,1.3-1.8V21.4
		c0-0.7-0.4-1.4-1.3-1.4H9.3C8.4,20,8,20.7,8,21.4v13.7C8,36,8.6,37,9.3,37H12v-5.5c0-0.8,0.7-1.5,1.5-1.5h23c0.8,0,1.5,0.7,1.5,1.5
		V37z"/>
</g>
<g>
	<path d="M36.2,46.4H13.8c-0.8,0-1.5-0.7-1.5-1.5V31.4c0-0.8,0.7-1.5,1.5-1.5h22.5c0.8,0,1.5,0.7,1.5,1.5v13.5
		C37.8,45.8,37.1,46.4,36.2,46.4z M15.2,43.4h19.5V32.9H15.2V43.4z"/>
</g>
<g>
	<path d="M32,36H18c-0.3,0-0.5-0.2-0.5-0.5S17.7,35,18,35h14c0.3,0,0.5,0.2,0.5,0.5S32.3,36,32,36z"/>
</g>
<g>
	<path d="M32,39H18c-0.3,0-0.5-0.2-0.5-0.5S17.7,38,18,38h14c0.3,0,0.5,0.2,0.5,0.5S32.3,39,32,39z"/>
</g>
<g>
	<path d="M28,42H18c-0.3,0-0.5-0.2-0.5-0.5S17.7,41,18,41h10c0.3,0,0.5,0.2,0.5,0.5S28.3,42,28,42z"/>
</g>
<g>
	<circle cx="36.2" cy="24" r="1"/>
</g>
<g>
	<circle cx="33.2" cy="24" r="1"/>
</g>
<g>
	<circle cx="30.2" cy="24" r="1"/>
</g>
</svg>
